<?xml version="1.0" encoding="utf-8"?>
<!-- Generator: Adobe Illustrator 25.0.0, SVG Export Plug-In . SVG Version: 6.00 Build 0)  -->
<svg version="1.1" id="Layer_1" xmlns="http://www.w3.org/2000/svg" xmlns:xlink="http://www.w3.org/1999/xlink" x="0px" y="0px"
	 viewBox="0 0 50 50" style="enable-background:new 0 0 50 50;" xml:space="preserve">
<style type="text/css">
	.st0{fill:#757576;}
</style>
<g id="Expanded">
	<g>
		<g>
			<path class="st0" d="M27.2,49.1h-4.1c-1.7,0-3-1.4-3-3v-3.8c-1.3-0.4-2.5-0.9-3.7-1.5l-2.7,2.7c-1.1,1.2-3.2,1.2-4.3,0l-2.9-2.9
				C6,40,5.7,39.2,5.7,38.4s0.3-1.6,0.9-2.2l2.7-2.7c-0.6-1.2-1.2-2.4-1.6-3.7H3.9c-1.7,0-3-1.4-3-3v-4.1c0-0.8,0.3-1.6,0.9-2.1
				c0.6-0.6,1.3-0.9,2.2-0.9h3.8c0.4-1.3,0.9-2.5,1.6-3.7l-2.7-2.7c-1.2-1.2-1.2-3.1,0-4.3l2.9-2.9c1.1-1.2,3.2-1.2,4.3,0l2.7,2.7
				c1.2-0.6,2.4-1.2,3.7-1.6V3.5c0-1.7,1.4-3,3-3h4.1c1.7,0,3,1.4,3,3v3.8c1.3,0.4,2.5,0.9,3.7,1.5l2.7-2.7c1.2-1.2,3.2-1.2,4.3,0
				L43.9,9c0.6,0.6,0.9,1.3,0.9,2.1c0,0.8-0.3,1.6-0.9,2.1l-2.7,2.7c0.7,1.2,1.2,2.4,1.5,3.7h3.8c1.7,0,3,1.4,3,3v4.1
				c0,0.8-0.3,1.6-0.9,2.1s-1.3,0.9-2.2,0.9h-3.8c-0.4,1.3-0.9,2.5-1.5,3.7l2.7,2.7c1.2,1.2,1.2,3.1,0,4.3L41,43.4
				c-1.2,1.2-3.2,1.2-4.3,0L34,40.7c-1.2,0.7-2.4,1.2-3.7,1.5V46C30.3,47.8,28.9,49.1,27.2,49.1z M16.2,38.5c0.2,0,0.4,0,0.5,0.2
				c1.4,0.9,3,1.5,4.6,1.9c0.5,0.1,0.8,0.5,0.8,1v4.6c0,0.6,0.5,1,1,1h4.1c0.6,0,1-0.5,1-1v-4.6c0-0.5,0.3-0.9,0.8-1
				c1.6-0.4,3.2-1,4.6-1.9c0.4-0.2,0.9-0.2,1.2,0.2l3.2,3.2c0.4,0.4,1,0.4,1.4,0l2.9-2.9c0.4-0.4,0.4-1,0-1.4l-3.2-3.2
				c-0.3-0.3-0.4-0.8-0.2-1.2c0.9-1.4,1.5-3,1.9-4.6c0.1-0.5,0.5-0.8,1-0.8h4.6c0.3,0,0.5-0.1,0.7-0.3c0.2-0.2,0.3-0.4,0.3-0.7v-4.1
				c0-0.6-0.5-1-1-1H42c-0.5,0-0.9-0.3-1-0.8c-0.4-1.6-1-3.2-1.9-4.6c-0.2-0.4-0.2-0.9,0.2-1.2l3.2-3.2c0.2-0.2,0.3-0.4,0.3-0.7
				s-0.1-0.5-0.3-0.7l-2.9-2.9c-0.4-0.4-1-0.4-1.4,0l-3.2,3.2c-0.3,0.3-0.8,0.4-1.2,0.1c-1.4-0.9-3-1.5-4.6-1.9
				c-0.5-0.1-0.8-0.5-0.8-1V3.5c0-0.6-0.5-1-1-1h-4.1c-0.6,0-1,0.5-1,1V8c0,0.5-0.3,0.9-0.8,1c-1.6,0.4-3.2,1-4.6,1.9
				c-0.4,0.2-0.9,0.2-1.2-0.1l-3.2-3.2c-0.4-0.4-1.1-0.4-1.4,0L8,10.4c-0.4,0.4-0.4,1,0,1.4l3.2,3.2c0.3,0.3,0.4,0.9,0.1,1.2
				c-0.9,1.4-1.5,3-1.9,4.6c-0.1,0.5-0.5,0.8-1,0.8H3.9c-0.3,0-0.5,0.1-0.7,0.3c-0.2,0.2-0.3,0.4-0.3,0.7v4.1c0,0.6,0.5,1,1,1h4.6
				c0.5,0,0.9,0.3,1,0.8c0.4,1.6,1,3.2,1.9,4.6c0.2,0.4,0.2,0.9-0.1,1.2L8,37.7c-0.2,0.2-0.3,0.5-0.3,0.7s0.1,0.5,0.3,0.7l2.9,2.9
				c0.4,0.4,1.1,0.4,1.4,0l3.2-3.2C15.7,38.6,16,38.5,16.2,38.5z"/>
		</g>
		<g>
			<path class="st0" d="M25.2,34.9c-5.6,0-10.1-4.5-10.1-10.1s4.5-10.1,10.1-10.1s10.1,4.5,10.1,10.1S30.8,34.9,25.2,34.9z
				 M25.2,16.6c-4.5,0-8.1,3.6-8.1,8.1s3.6,8.1,8.1,8.1s8.1-3.6,8.1-8.1S29.7,16.6,25.2,16.6z"/>
		</g>
	</g>
</g>
</svg>
