<svg width="16" height="16" viewBox="0 0 16 16" fill="none" xmlns="http://www.w3.org/2000/svg">
    <g clip-path="url(#clip0_1_4646)">
        <path d="M14.857 2.28572H10.857V1.71428C10.857 0.767509 10.0895 0 9.14274 0H6.85702C5.91024 0 5.14273 0.767509 5.14273 1.71428V2.28572H1.14273C0.827126 2.28572 0.571289 2.54156 0.571289 2.85716C0.571289 3.17276 0.827159 3.42856 1.14273 3.42856H1.76385L2.85701 15.4805C2.88396 15.7756 3.1321 16.0012 3.42845 16H12.5713C12.8677 16.0012 13.1158 15.7757 13.1427 15.4805L14.2359 3.42856H14.857C15.1726 3.42856 15.4285 3.17273 15.4285 2.85712C15.4285 2.54152 15.1726 2.28572 14.857 2.28572ZM6.28558 1.71428C6.28558 1.39868 6.54142 1.14284 6.85702 1.14284H9.14274C9.45834 1.14284 9.71418 1.39868 9.71418 1.71428V2.28572H6.28561V1.71428H6.28558ZM12.0496 14.8571H3.95017L2.91417 3.42856H5.71417H13.0884L12.0496 14.8571Z"
              fill="#051036"/>
        <path d="M6.28575 13.1047C6.28568 13.1039 6.28565 13.1031 6.28558 13.1024L5.71414 5.10239C5.69174 4.78679 5.41772 4.54913 5.10215 4.57153C4.78654 4.59393 4.54889 4.86795 4.57129 5.18352L5.14273 13.1835C5.16406 13.4831 5.41377 13.7151 5.71417 13.7143H5.75532C6.07015 13.6925 6.30764 13.4195 6.28575 13.1047Z"
              fill="#051036"/>
        <path d="M8.00015 4.57153C7.68455 4.57153 7.42871 4.82737 7.42871 5.14297V13.143C7.42871 13.4586 7.68455 13.7144 8.00015 13.7144C8.31575 13.7144 8.57159 13.4586 8.57159 13.143V5.14297C8.57159 4.82737 8.31575 4.57153 8.00015 4.57153Z"
              fill="#051036"/>
        <path d="M10.8979 4.57153C10.5823 4.54913 10.3083 4.78679 10.2859 5.10239L9.71445 13.1024C9.69132 13.4171 9.9277 13.691 10.2424 13.7142C10.2434 13.7142 10.2443 13.7143 10.2453 13.7144H10.2859C10.5863 13.7151 10.836 13.4831 10.8573 13.1835L11.4288 5.18352C11.4512 4.86795 11.2135 4.59396 10.8979 4.57153Z"
              fill="#051036"/>
    </g>
    <defs>
        <clipPath id="clip0_1_4646">
            <rect width="16" height="16" fill="white"/>
        </clipPath>
    </defs>
</svg>
