<svg width="20" height="20" viewBox="0 0 20 20" fill="none" xmlns="http://www.w3.org/2000/svg">
    <path d="M6.8 18.199C6.28792 18.7113 5.59338 18.9994 4.869 19H1V15.156C1 14.432 1.288 13.737 1.8 13.225M6.8 18.199L1.8 13.225M6.8 18.199L16.774 8.22095M1.8 13.225L11.784 3.22995L13.21 1.80196C13.4638 1.54781 13.7651 1.34618 14.0968 1.20857C14.4286 1.07097 14.7842 1.00009 15.1433 1C15.5024 0.999907 15.8581 1.0706 16.1899 1.20803C16.5217 1.34546 16.8231 1.54695 17.077 1.80096L18.203 2.92796C18.7155 3.44049 19.0035 4.13563 19.0035 4.86045C19.0035 5.58528 18.7155 6.28042 18.203 6.79296L16.774 8.22095M16.774 8.22095L11.783 3.22995"
          stroke="#1D53A8" stroke-width="1.5" stroke-linecap="round" stroke-linejoin="round"/>
</svg>
