<svg width="25" height="24" viewBox="0 0 25 24" fill="none" xmlns="http://www.w3.org/2000/svg">
    <path d="M22.3055 10.0361H21.5V9.99463H12.5V13.9946H18.1515C17.327 16.3231 15.1115 17.9946 12.5 17.9946C9.1865 17.9946 6.5 15.3081 6.5 11.9946C6.5 8.68113 9.1865 5.99463 12.5 5.99463C14.0295 5.99463 15.421 6.57163 16.4805 7.51413L19.309 4.68563C17.523 3.02113 15.134 1.99463 12.5 1.99463C6.9775 1.99463 2.5 6.47213 2.5 11.9946C2.5 17.5171 6.9775 21.9946 12.5 21.9946C18.0225 21.9946 22.5 17.5171 22.5 11.9946C22.5 11.3241 22.431 10.6696 22.3055 10.0361Z"
          fill="#FFC107"/>
    <path d="M3.65283 7.34013L6.93833 9.74963C7.82733 7.54863 9.98033 5.99463 12.4998 5.99463C14.0293 5.99463 15.4208 6.57163 16.4803 7.51413L19.3088 4.68563C17.5228 3.02113 15.1338 1.99463 12.4998 1.99463C8.65883 1.99463 5.32783 4.16313 3.65283 7.34013Z"
          fill="#FF3D00"/>
    <path d="M12.5002 21.9947C15.0832 21.9947 17.4302 21.0062 19.2047 19.3987L16.1097 16.7797C15.0719 17.5689 13.8039 17.9958 12.5002 17.9947C9.89916 17.9947 7.69066 16.3362 6.85866 14.0217L3.59766 16.5342C5.25266 19.7727 8.61366 21.9947 12.5002 21.9947Z"
          fill="#4CAF50"/>
    <path d="M22.3055 10.0361H21.5V9.99463H12.5V13.9946H18.1515C17.7571 15.1028 17.0467 16.0712 16.108 16.7801L16.1095 16.7791L19.2045 19.3981C18.9855 19.5971 22.5 16.9946 22.5 11.9946C22.5 11.3241 22.431 10.6696 22.3055 10.0361Z"
          fill="#1976D2"/>
</svg>
