<svg width="20" height="20" viewBox="0 0 20 20" fill="none" xmlns="http://www.w3.org/2000/svg">
    <path d="M16.2442 8.50005C15.9697 8.22439 15.6432 8.00586 15.2837 7.85711C14.9242 7.70835 14.5388 7.63231 14.1498 7.63339V5.26117C14.1702 4.70377 14.078 4.14799 13.8788 3.62702C13.6796 3.10605 13.3774 2.63058 12.9902 2.22903C12.6031 1.82748 12.139 1.50809 11.6257 1.28994C11.1124 1.07179 10.5603 0.959351 10.0026 0.959351C9.4448 0.959351 8.89275 1.07179 8.37942 1.28994C7.86609 1.50809 7.40199 1.82748 7.01488 2.22903C6.62776 2.63058 6.32556 3.10605 6.12633 3.62702C5.9271 4.14799 5.83493 4.70377 5.85534 5.26117V7.63339C5.46601 7.63266 5.08036 7.70871 4.72046 7.85719C4.36056 8.00568 4.03348 8.22367 3.75792 8.49871C3.48237 8.77375 3.26376 9.10043 3.1146 9.46005C2.96545 9.81967 2.88867 10.2052 2.88867 10.5945V15.9278C2.88867 16.7132 3.20065 17.4663 3.75596 18.0217C4.31128 18.577 5.06445 18.8889 5.84978 18.8889H14.1498C14.9351 18.8889 15.6883 18.577 16.2436 18.0217C16.7989 17.4663 17.1109 16.7132 17.1109 15.9278V10.5945C17.1123 10.2054 17.0364 9.8199 16.8876 9.46036C16.7388 9.10083 16.5201 8.77441 16.2442 8.50005ZM7.03867 5.26117C7.03867 4.87194 7.11533 4.48653 7.26428 4.12693C7.41323 3.76734 7.63155 3.4406 7.90677 3.16538C8.182 2.89016 8.50873 2.67184 8.86833 2.52289C9.22793 2.37394 9.61334 2.29728 10.0026 2.29728C10.3918 2.29728 10.7772 2.37394 11.1368 2.52289C11.4964 2.67184 11.8231 2.89016 12.0983 3.16538C12.3736 3.4406 12.5919 3.76734 12.7408 4.12693C12.8898 4.48653 12.9665 4.87194 12.9665 5.26117V7.63339H7.03867V5.26117ZM15.9276 15.9278C15.9276 16.3993 15.7403 16.8515 15.4069 17.1849C15.0735 17.5183 14.6213 17.7056 14.1498 17.7056H5.84978C5.37829 17.7056 4.9261 17.5183 4.5927 17.1849C4.25931 16.8515 4.07201 16.3993 4.07201 15.9278V10.5945C4.07201 10.123 4.25931 9.67082 4.5927 9.33742C4.9261 9.00402 5.37829 8.81672 5.84978 8.81672H14.1498C14.6213 8.81672 15.0735 9.00402 15.4069 9.33742C15.7403 9.67082 15.9276 10.123 15.9276 10.5945V15.9278Z"
          fill="#051036"/>
    <path d="M10 10.5945C9.58097 10.5927 9.17483 10.7395 8.85372 11.0087C8.53261 11.278 8.3173 11.6523 8.24604 12.0653C8.17477 12.4783 8.25214 12.9031 8.46443 13.2645C8.67671 13.6258 9.01017 13.9002 9.40559 14.0389V15.9278H10.5889V14.0389C10.9839 13.9003 11.317 13.6264 11.5294 13.2656C11.7417 12.9049 11.8195 12.4807 11.7489 12.0681C11.6784 11.6555 11.4641 11.2812 11.144 11.0114C10.8239 10.7417 10.4186 10.594 10 10.5945ZM10 12.9667C9.88247 12.9667 9.76754 12.9319 9.66978 12.8665C9.57203 12.8012 9.49584 12.7084 9.45084 12.5998C9.40585 12.4911 9.39408 12.3716 9.41702 12.2563C9.43995 12.141 9.49657 12.0351 9.5797 11.9519C9.66284 11.8688 9.76876 11.8122 9.88407 11.7893C9.99938 11.7663 10.1189 11.7781 10.2275 11.8231C10.3361 11.8681 10.429 11.9443 10.4943 12.042C10.5596 12.1398 10.5945 12.2547 10.5945 12.3723C10.593 12.529 10.5297 12.6787 10.4184 12.789C10.3071 12.8993 10.1567 12.9612 10 12.9612V12.9667Z"
          fill="#051036"/>
</svg>
