<svg width="20" height="20" viewBox="0 0 20 20" fill="none" xmlns="http://www.w3.org/2000/svg">
    <g clip-path="url(#clip0_1_4581)">
        <path d="M17.9998 13.3313C17.8224 13.3313 17.6523 13.4017 17.5269 13.5271C17.4015 13.6525 17.3311 13.8226 17.3311 14C17.3294 15.2377 16.837 16.4243 15.9618 17.2995C15.0866 18.1747 13.9 18.6671 12.6623 18.6688H7.33105C6.09442 18.6654 4.90947 18.1723 4.03561 17.2973C3.16176 16.4223 2.6702 15.2366 2.66855 14V6C2.67021 4.76228 3.16262 3.57572 4.03783 2.70052C4.91303 1.82532 6.09958 1.3329 7.3373 1.33125H12.6686C13.9052 1.33456 15.0901 1.8277 15.964 2.70272C16.8378 3.57775 17.3294 4.76336 17.3311 6C17.322 6.09283 17.3326 6.18652 17.3619 6.27505C17.3913 6.36357 17.4388 6.44498 17.5015 6.51404C17.5642 6.5831 17.6406 6.63829 17.7259 6.67605C17.8112 6.71382 17.9034 6.73333 17.9967 6.73333C18.0899 6.73333 18.1822 6.71382 18.2675 6.67605C18.3527 6.63829 18.4292 6.5831 18.4919 6.51404C18.5545 6.44498 18.6021 6.36357 18.6314 6.27505C18.6608 6.18652 18.6713 6.09283 18.6623 6C18.6607 4.41029 18.0288 2.88607 16.9053 1.76139C15.7818 0.63671 14.2583 0.00330759 12.6686 0L7.33105 0C5.74026 0.00165449 4.2151 0.634327 3.09024 1.75919C1.96538 2.88405 1.33271 4.40921 1.33105 6V14C1.33271 15.5908 1.96538 17.116 3.09024 18.2408C4.2151 19.3657 5.74026 19.9983 7.33105 20H12.6623C14.2531 19.9983 15.7783 19.3657 16.9031 18.2408C18.028 17.116 18.6607 15.5908 18.6623 14C18.6623 13.8237 18.5927 13.6546 18.4686 13.5293C18.3446 13.4041 18.1761 13.3329 17.9998 13.3313Z"
              fill="#051036"/>
        <path d="M18.0001 9.33122H10.2751L11.8064 7.79997C11.8991 7.67021 11.9424 7.51159 11.9285 7.35273C11.9145 7.19387 11.8443 7.04521 11.7304 6.93358C11.6165 6.82196 11.4665 6.7547 11.3073 6.74395C11.1482 6.7332 10.9905 6.77967 10.8626 6.87497L8.19389 9.54372C8.06909 9.66905 7.99902 9.83872 7.99902 10.0156C7.99902 10.1925 8.06909 10.3621 8.19389 10.4875L10.8626 13.125C10.9903 13.237 11.1558 13.2962 11.3255 13.2907C11.4953 13.2852 11.6565 13.2153 11.7766 13.0952C11.8967 12.9751 11.9666 12.8138 11.9721 12.6441C11.9777 12.4743 11.9184 12.3089 11.8064 12.1812L10.2751 10.65H18.0001C18.1656 10.6339 18.3191 10.5569 18.4308 10.4338C18.5424 10.3108 18.6043 10.1505 18.6043 9.98434C18.6043 9.81816 18.5424 9.65793 18.4308 9.53487C18.3191 9.41182 18.1656 9.33476 18.0001 9.31872V9.33122Z"
              fill="#051036"/>
    </g>
    <defs>
        <clipPath id="clip0_1_4581">
            <rect width="20" height="20" fill="white"/>
        </clipPath>
    </defs>
</svg>
