<svg width="21" height="20" viewBox="0 0 21 20" fill="none" xmlns="http://www.w3.org/2000/svg">
    <path d="M14.4072 13.6661L14.8977 13.1765L13.7587 12.0266L13.2683 12.5162L14.4072 13.6661ZM16.5449 12.9714L18.6022 14.0942L19.3736 12.6696L17.3163 11.5468L16.5449 12.9714ZM18.9982 16.3257L17.4685 17.8527L18.6073 19.0027L20.1371 17.4757L18.9982 16.3257ZM16.5364 18.3444C14.975 18.4905 10.9356 18.3603 6.56206 13.9945L5.42314 15.1445C10.1958 19.9086 14.7382 20.1412 16.6863 19.959L16.5364 18.3444ZM6.56206 13.9945C2.39318 9.83311 1.70261 6.33302 1.61664 4.81456L0.00397928 4.90657C0.112159 6.8177 0.96725 10.6966 5.42314 15.1445L6.56206 13.9945ZM8.04306 7.31328L8.3519 7.00497L7.21303 5.85508L6.90418 6.16338L8.04306 7.31328ZM8.59775 3.07509L7.2399 1.25415L5.94683 2.22596L7.30467 4.04691L8.59775 3.07509ZM2.67297 0.857814L0.982757 2.54501L2.12167 3.69492L3.81189 2.00772L2.67297 0.857814ZM7.47363 6.73833C6.90418 6.16338 6.9034 6.16415 6.90263 6.16492C6.90237 6.16518 6.9016 6.16597 6.90107 6.1665C6.90001 6.16757 6.89894 6.16865 6.89785 6.16977C6.89566 6.172 6.8934 6.17433 6.89108 6.17675C6.88641 6.1816 6.88148 6.18686 6.87629 6.19252C6.8659 6.20384 6.85449 6.21679 6.84228 6.23142C6.81787 6.26066 6.79021 6.29667 6.76113 6.33975C6.70284 6.42612 6.63933 6.54031 6.58543 6.68392C6.47545 6.97694 6.4165 7.36321 6.49041 7.84153C6.63497 8.77695 7.27667 10.0126 8.92048 11.6534L10.0593 10.5035C8.52107 8.96793 8.15462 8.03346 8.08657 7.59293C8.05415 7.38328 8.08775 7.28009 8.09701 7.25566C8.10261 7.24055 8.1053 7.239 8.09841 7.24932C8.09497 7.25437 8.08926 7.26228 8.08032 7.27292C8.07591 7.27825 8.07063 7.28429 8.06449 7.29101C8.06137 7.29437 8.05814 7.29791 8.05448 7.30162C8.05275 7.30348 8.05092 7.30537 8.04899 7.30731C8.04802 7.30829 8.04705 7.30927 8.04608 7.31026C8.04565 7.31076 8.04489 7.31152 8.04457 7.31177C8.04382 7.31252 8.04306 7.31328 7.47363 6.73833ZM8.92048 11.6534C10.5648 13.2948 11.8014 13.9336 12.7347 14.0774C13.2116 14.1508 13.5961 14.0922 13.8879 13.9831C14.0309 13.9296 14.1448 13.8666 14.2309 13.8086C14.274 13.7796 14.31 13.7521 14.3392 13.7277C14.3538 13.7156 14.3667 13.7043 14.378 13.6939C14.3837 13.6887 14.389 13.6839 14.3939 13.6792C14.3963 13.6768 14.3986 13.6746 14.4009 13.6724C14.4019 13.6713 14.403 13.6702 14.4041 13.6691C14.4046 13.6686 14.4055 13.6679 14.4057 13.6676C14.4065 13.6669 14.4072 13.6661 13.8378 13.0911C13.2683 12.5162 13.2691 12.5154 13.2699 12.5147C13.2701 12.5145 13.2708 12.5137 13.2714 12.5132C13.2723 12.5122 13.2733 12.5112 13.2743 12.5103C13.2763 12.5084 13.2781 12.5066 13.28 12.5047C13.2837 12.5012 13.2873 12.4979 13.2906 12.4948C13.2973 12.4887 13.3033 12.4834 13.3087 12.4791C13.3193 12.4703 13.3271 12.4646 13.332 12.4613C13.342 12.4546 13.34 12.4576 13.324 12.4635C13.2976 12.4734 13.192 12.5072 12.9796 12.4745C12.5346 12.406 11.5972 12.0385 10.0593 10.5035L8.92048 11.6534ZM7.2399 1.25415C6.14226 -0.217809 3.98385 -0.450723 2.67297 0.857814L3.81189 2.00772C4.38443 1.43619 5.40127 1.49436 5.94683 2.22596L7.2399 1.25415ZM1.61664 4.81456C1.59546 4.44039 1.7664 4.04955 2.12167 3.69492L0.982757 2.54501C0.404146 3.12259 -0.0507353 3.9402 0.00397928 4.90657L1.61664 4.81456ZM17.4685 17.8527C17.1726 18.1482 16.8553 18.3146 16.5364 18.3444L16.6863 19.959C17.4773 19.8849 18.1255 19.4837 18.6073 19.0027L17.4685 17.8527ZM8.3519 7.00497C9.41206 5.9467 9.49088 4.27279 8.59775 3.07509L7.30467 4.04691C7.73918 4.62958 7.67457 5.39437 7.21303 5.85508L8.3519 7.00497ZM18.6022 14.0942C19.4828 14.5749 19.62 15.705 18.9982 16.3257L20.1371 17.4757C21.5804 16.0349 21.1354 13.631 19.3736 12.6696L18.6022 14.0942ZM14.8977 13.1765C15.3112 12.7638 15.9768 12.6615 16.5449 12.9714L17.3163 11.5468C16.1494 10.91 14.7013 11.0858 13.7587 12.0266L14.8977 13.1765Z"
          fill="#CECECE"/>
</svg>
