<svg width="20" height="20" viewBox="0 0 20 20" fill="none" xmlns="http://www.w3.org/2000/svg">
<path d="M10.0002 17.7055C8.65213 17.7086 7.32686 17.3577 6.15694 16.6879C4.98701 16.0181 4.01343 15.053 3.33355 13.8889L5.30022 13.3333C5.79419 13.1903 6.22849 12.8911 6.538 12.4804C6.8475 12.0697 7.01553 11.5698 7.01688 11.0555V10.1444C7.01674 9.98837 7.04761 9.83386 7.1077 9.68985C7.16778 9.54584 7.25588 9.4152 7.36688 9.30553L8.69466 7.97775C8.91433 7.75926 9.08875 7.49959 9.20791 7.2136C9.32708 6.9276 9.38865 6.62091 9.38911 6.31108V4.81108C9.38865 4.50126 9.32708 4.19457 9.20791 3.90857C9.08875 3.62258 8.91433 3.3629 8.69466 3.14442L8.11688 2.53886C9.25319 2.24568 10.4416 2.21708 11.5907 2.45525C12.7398 2.69341 13.8189 3.192 14.7451 3.91266C15.6713 4.63332 16.4198 5.55683 16.9331 6.61215C17.4464 7.66747 17.7107 8.82646 17.7058 9.99997H18.8891C18.8891 7.64249 17.9526 5.38157 16.2856 3.71458C14.6186 2.04759 12.3577 1.11108 10.0002 1.11108C7.65125 1.13849 5.40621 2.0838 3.74513 3.74488C2.08404 5.40597 1.13874 7.651 1.11133 9.99997C1.11116 11.3292 1.40911 12.6415 1.98322 13.8404C2.55733 15.0392 3.393 16.094 4.4287 16.9271C5.4644 17.7603 6.67377 18.3506 7.96777 18.6545C9.26177 18.9584 10.6075 18.9683 11.9058 18.6833L11.6669 17.5278C11.1194 17.6473 10.5606 17.7069 10.0002 17.7055ZM8.22244 6.29997C8.22331 6.45563 8.19332 6.60991 8.13419 6.7539C8.07507 6.89789 7.98799 7.02873 7.878 7.13886L6.55022 8.46664C6.33054 8.68512 6.15613 8.9448 6.03697 9.23079C5.9178 9.51679 5.85623 9.82348 5.85577 10.1333V11.0166C5.85768 11.2753 5.77518 11.5275 5.62079 11.7351C5.46639 11.9426 5.24851 12.0941 5.00022 12.1666L2.83355 12.7778C2.47175 11.8961 2.28313 10.953 2.27799 9.99997C2.29165 8.51114 2.73236 7.05751 3.54777 5.81175C4.36317 4.56599 5.51901 3.58045 6.878 2.97219L7.878 3.97219C7.989 4.08187 8.0771 4.2125 8.13718 4.35651C8.19727 4.50053 8.22814 4.65504 8.228 4.81108L8.22244 6.29997Z" fill="#051036"/>
<path d="M18.2946 11.5056C17.5225 11.5331 16.7566 11.3588 16.0724 11L15.4557 10.6667C15.3701 10.6214 15.2747 10.5978 15.1779 10.5978C15.0811 10.5978 14.9857 10.6214 14.9001 10.6667L14.2835 11C13.5993 11.3588 12.8333 11.5331 12.0612 11.5056C11.9036 11.5056 11.7524 11.5682 11.6409 11.6797C11.5294 11.7911 11.4668 11.9423 11.4668 12.1V13.4667C11.4691 14.5966 11.7947 15.7023 12.405 16.6532C13.0153 17.6041 13.885 18.3606 14.9112 18.8333C14.9888 18.8688 15.0731 18.8872 15.1585 18.8872C15.2438 18.8872 15.3281 18.8688 15.4057 18.8333C16.4392 18.3663 17.3169 17.6122 17.9344 16.6609C18.5519 15.7095 18.8833 14.6008 18.889 13.4667V12.1C18.889 11.9423 18.8264 11.7911 18.7149 11.6797C18.6034 11.5682 18.4522 11.5056 18.2946 11.5056ZM17.7001 13.4667C17.6988 14.3237 17.4651 15.1643 17.0239 15.899C16.5826 16.6337 15.9504 17.235 15.1946 17.6389C14.4387 17.235 13.8065 16.6337 13.3653 15.899C12.9241 15.1643 12.6904 14.3237 12.689 13.4667V12.6778C13.4504 12.6221 14.191 12.4042 14.8612 12.0389L15.1946 11.8556L15.5279 12.0389C16.1982 12.4042 16.9388 12.6221 17.7001 12.6778V13.4667Z" fill="#051036"/>
</svg>
