<?xml version="1.0" encoding="utf-8"?>
<!-- Generator: Adobe Illustrator 25.0.0, SVG Export Plug-In . SVG Version: 6.00 Build 0)  -->
<svg version="1.1" id="Layer_1" xmlns="http://www.w3.org/2000/svg" xmlns:xlink="http://www.w3.org/1999/xlink" x="0px" y="0px"
	 viewBox="0 0 48 48" style="enable-background:new 0 0 48 48;" xml:space="preserve">
<style type="text/css">
	.st0{fill-rule:evenodd;clip-rule:evenodd;}
</style>
<path class="st0" d="M43,46H5c-2.2,0-4-1.8-4-4l4-24c0.7-3.4,2.7-4,4.9-4h2.7C14,7.1,18.6,2,24,2s10,5.1,11.5,12h2.7
	c2.2,0,4.2,0.6,4.9,4l4,24C47,44.2,45.2,46,43,46z M24,4c-4.4,0-8,4.2-9.4,10h18.8C32,8.2,28.4,4,24,4z M41,18c-0.3-1.4-1-2-2.4-2
	h-2.8c0.1,1,0.2,2,0.2,3c0,0.6-0.4,1-1,1s-1-0.4-1-1c0-1-0.1-2-0.2-3H14.2c-0.1,1-0.2,2-0.2,3c0,0.6-0.4,1-1,1s-1-0.4-1-1
	c0-1,0.1-2,0.2-3H9.4C8,16,7.3,16.6,7,18L3,42c0,1.1,0.9,2,2,2h38c1.1,0,2-0.9,2-2L41,18z"/>
</svg>
