<svg width="20" height="20" viewBox="0 0 20 20" fill="none" xmlns="http://www.w3.org/2000/svg">
<path d="M11.1835 18.8889H4.07244C3.28755 18.8874 2.53524 18.575 1.98024 18.02C1.42524 17.465 1.1128 16.7126 1.11133 15.9278V4.07221C1.1128 3.28732 1.42524 2.535 1.98024 1.98001C2.53524 1.42501 3.28755 1.11256 4.07244 1.1111H10.1835C10.5726 1.11002 10.958 1.18606 11.3175 1.33481C11.677 1.48357 12.0035 1.70209 12.278 1.97776L14.4447 4.14443C14.7203 4.41897 14.9389 4.74542 15.0876 5.10491C15.2364 5.46441 15.3124 5.84982 15.3113 6.23887V8.22221H14.1502V6.23887C14.1462 5.77322 13.9585 5.32798 13.628 4.99998L11.4613 2.83332C11.2969 2.66765 11.1013 2.5362 10.8858 2.44657C10.6703 2.35693 10.4392 2.31089 10.2058 2.3111H4.09466C3.62317 2.3111 3.17098 2.4984 2.83758 2.83179C2.50418 3.16519 2.31688 3.61738 2.31688 4.08887V15.9278C2.31688 16.3993 2.50418 16.8514 2.83758 17.1848C3.17098 17.5182 3.62317 17.7055 4.09466 17.7055H11.2058L11.1835 18.8889Z" fill="#051036"/>
<path d="M4.6665 15.3334H9.40539V16.5167H4.6665V15.3334Z" fill="#051036"/>
<path d="M4.6665 12.9611H9.40539V14.1444H4.6665V12.9611Z" fill="#051036"/>
<path d="M10.6276 5.6945C10.4273 5.50832 10.1867 5.37087 9.92465 5.29282C9.66256 5.21477 9.386 5.19823 9.11648 5.2445C8.78594 5.29931 8.47666 5.44339 8.22204 5.66117C7.96742 5.44339 7.65813 5.29931 7.32759 5.2445C7.05807 5.19823 6.78151 5.21477 6.51942 5.29282C6.25733 5.37087 6.01678 5.50832 5.81648 5.6945C5.11093 6.36117 5.06648 7.57228 5.69426 8.75561C6.24867 9.63834 7.01187 10.371 7.91648 10.8889C8.01132 10.9486 8.12109 10.9803 8.23315 10.9803C8.34521 10.9803 8.45498 10.9486 8.54982 10.8889C9.45326 10.3743 10.2164 9.64553 10.772 8.76672C11.3776 7.56672 11.3276 6.36117 10.6276 5.6945ZM9.6887 8.23339C9.31627 8.82035 8.81461 9.31441 8.22204 9.67783C7.62547 9.31048 7.12168 8.81049 6.74981 8.21672C6.3387 7.43895 6.38315 6.7945 6.63315 6.55006C6.73978 6.45012 6.8815 6.39623 7.02759 6.40006C7.17063 6.40992 7.30828 6.45857 7.42574 6.5408C7.5432 6.62302 7.63604 6.7357 7.69426 6.86672C7.74488 6.96203 7.82048 7.04177 7.91297 7.09737C8.00546 7.15297 8.11134 7.18235 8.21926 7.18235C8.32718 7.18235 8.43306 7.15297 8.52555 7.09737C8.61803 7.04177 8.69364 6.96203 8.74426 6.86672C8.79424 6.7517 8.87056 6.65003 8.96706 6.56993C9.06357 6.48983 9.17755 6.43355 9.29982 6.40561C9.38824 6.38986 9.47907 6.39417 9.56561 6.41821C9.65215 6.44224 9.73218 6.4854 9.79982 6.5445C10.0609 6.7945 10.1054 7.43895 9.6887 8.23339Z" fill="#051036"/>
<path d="M14.7556 18.8889C14.4681 18.8885 14.1854 18.8159 13.9333 18.6778L13.1889 18.2722C12.4703 17.8607 11.8683 17.2729 11.4397 16.5643C11.0111 15.8558 10.7699 15.0498 10.7389 14.2222L10.6278 12C10.6041 11.6581 10.6928 11.3179 10.8803 11.0311C11.0679 10.7443 11.344 10.5266 11.6667 10.4111L14.1944 9.56113C14.5552 9.44203 14.9448 9.44203 15.3056 9.56113L17.8333 10.4111C18.1581 10.5234 18.4372 10.739 18.6279 11.025C18.8185 11.3109 18.9102 11.6515 18.8889 11.9945L18.7778 14.2167C18.7468 15.0442 18.5056 15.8502 18.077 16.5588C17.6483 17.2673 17.0464 17.8551 16.3278 18.2667L15.5556 18.6556C15.3121 18.7979 15.0373 18.878 14.7556 18.8889ZM14.7556 10.6834C14.6912 10.684 14.6274 10.6952 14.5667 10.7167L12.0389 11.5667C11.9633 11.6004 11.9004 11.6574 11.8595 11.7294C11.8185 11.8013 11.8016 11.8845 11.8111 11.9667L11.9222 14.1889C11.9486 14.8084 12.131 15.4113 12.4525 15.9415C12.7739 16.4718 13.224 16.9123 13.7611 17.2222L14.5056 17.6278C14.5845 17.6687 14.6722 17.6901 14.7611 17.6901C14.8501 17.6901 14.9377 17.6687 15.0167 17.6278L15.7556 17.2222C16.2959 16.9082 16.7476 16.4621 17.0683 15.9257C17.3889 15.3893 17.5681 14.7802 17.5889 14.1556L17.7 11.9334C17.7096 11.8511 17.6926 11.768 17.6516 11.696C17.6107 11.6241 17.5478 11.5671 17.4722 11.5334L14.9444 10.6889C14.8837 10.6676 14.8199 10.6564 14.7556 10.6556V10.6834Z" fill="#051036"/>
</svg>
