<svg width="20" height="20" viewBox="0 0 20 20" fill="none" xmlns="http://www.w3.org/2000/svg">
    <path d="M10.6611 8.41516C10.6488 8.40525 10.6367 8.39575 10.6248 8.3865V14.1667C10.6248 14.5118 10.345 14.7916 9.99984 14.7916C9.65467 14.7916 9.37484 14.5118 9.37484 14.1667V8.3865C9.363 8.39575 9.35092 8.40525 9.33859 8.41516C9.06975 8.63108 8.75009 8.95225 8.27529 9.43133L7.11041 10.6067C6.86743 10.8518 6.4717 10.8536 6.22654 10.6106C5.98137 10.3676 5.97961 9.97183 6.2226 9.72666L7.41288 8.52575C7.8557 8.07894 8.22503 7.70627 8.55584 7.44057C8.90292 7.16188 9.26759 6.94991 9.71192 6.89327C9.90309 6.86891 10.0966 6.86891 10.2878 6.89327C10.7321 6.94991 11.0968 7.16189 11.4438 7.44057C11.7747 7.70627 12.144 8.07892 12.5868 8.52575L13.7771 9.72666C14.0201 9.97183 14.0183 10.3676 13.7732 10.6106C13.528 10.8536 13.1323 10.8518 12.8893 10.6067L11.7244 9.43133C11.2496 8.95225 10.9299 8.63108 10.6611 8.41516Z"
          fill="white"/>
    <path fill-rule="evenodd" clip-rule="evenodd"
          d="M16.1498 1.95675C15.4778 1.46856 14.6909 1.24997 13.7196 1.14473C12.7678 1.04162 11.5682 1.04162 10.0377 1.04163H9.99074C9.02408 1.04163 8.19293 1.04163 7.47859 1.0661C5.91739 1.11959 4.76991 1.28854 3.8502 1.95675C3.44341 2.2523 3.08567 2.61003 2.79012 3.01683C2.12192 3.93654 1.95297 5.08402 1.89948 6.64523C1.875 7.35957 1.875 8.19072 1.875 9.15746V10.871C1.87499 12.4015 1.87499 13.6011 1.97811 14.5529C2.08334 15.5242 2.30193 16.3111 2.79012 16.9831C3.08567 17.3899 3.44341 17.7476 3.8502 18.0431C4.52213 18.5314 5.30911 18.75 6.2804 18.8552C7.23215 18.9583 8.43183 18.9583 9.96224 18.9583H10.0377C11.5682 18.9583 12.7678 18.9583 13.7196 18.8552C14.6909 18.75 15.4778 18.5314 16.1498 18.0431C16.5566 17.7476 16.9143 17.3899 17.2098 16.9831C17.6981 16.3111 17.9167 15.5242 18.0219 14.5529C18.125 13.6011 18.125 12.4015 18.125 10.871V9.12888C18.125 7.59849 18.125 6.39878 18.0219 5.44703C17.9167 4.47574 17.6981 3.68876 17.2098 3.01683C16.9143 2.61003 16.5566 2.2523 16.1498 1.95675ZM9.99999 2.29163C11.5763 2.29163 12.7083 2.29248 13.585 2.38746C14.4499 2.48117 14.9917 2.66045 15.4151 2.96803C15.7157 3.18648 15.9802 3.45088 16.1986 3.75155C16.5062 4.17489 16.6854 4.71673 16.7792 5.58166C16.8742 6.45828 16.875 7.59032 16.875 9.16663V10.8333C16.875 12.4096 16.8742 13.5416 16.7792 14.4183C16.6854 15.2832 16.5062 15.825 16.1986 16.2484C15.9802 16.549 15.7157 16.8135 15.4151 17.0319C14.9917 17.3395 14.4499 17.5187 13.585 17.6125C12.7083 17.7075 11.5763 17.7083 9.99999 17.7083C8.42366 17.7083 7.29165 17.7075 6.41503 17.6125C5.5501 17.5187 5.00826 17.3395 4.58492 17.0319C4.28426 16.8135 4.01985 16.549 3.8014 16.2484C3.49382 15.825 3.31454 15.2832 3.22083 14.4183C3.12586 13.5416 3.125 12.4096 3.125 10.8333V9.16663C3.125 8.45971 3.12504 7.84014 3.13402 7.29011C3.52956 7.28647 3.82074 7.27416 4.08291 7.23263C6.13323 6.90789 7.74126 5.29986 8.066 3.24954C8.10753 2.98737 8.11984 2.69618 8.12348 2.30064C8.67349 2.29167 9.29308 2.29163 9.99999 2.29163ZM3.88737 5.99803C3.71651 6.02508 3.51865 6.03541 3.1812 6.03931C3.25934 4.90569 3.43846 4.2511 3.8014 3.75155C4.01985 3.45088 4.28426 3.18648 4.58492 2.96803C5.08447 2.60508 5.73906 2.42597 6.87268 2.34783C6.86878 2.68528 6.85845 2.88313 6.8314 3.054C6.59137 4.56945 5.40282 5.758 3.88737 5.99803Z"
          fill="white"/>
</svg>
